<?xml version="1.0" encoding="UTF-8" standalone="no"?>
<!-- Generator: Adobe Illustrator 12.0.0, SVG Export Plug-In  -->
<svg xmlns:dc="http://purl.org/dc/elements/1.1/" xmlns:cc="http://web.resource.org/cc/" xmlns:rdf="http://www.w3.org/1999/02/22-rdf-syntax-ns#" xmlns:svg="http://www.w3.org/2000/svg" xmlns="http://www.w3.org/2000/svg" xmlns:xlink="http://www.w3.org/1999/xlink" xmlns:sodipodi="http://sodipodi.sourceforge.net/DTD/sodipodi-0.dtd" xmlns:inkscape="http://www.inkscape.org/namespaces/inkscape" version="1.1" width="448" height="433" viewBox="0 0 448 433" enable-background="new 0 0 448 433" xml:space="preserve" id="svg2" sodipodi:version="0.32" inkscape:version="0.46dev+devel" sodipodi:docname="eastshores_Warning_Notification.svg" inkscape:output_extension="org.inkscape.output.svg.inkscape"><metadata id="metadata28"><rdf:RDF><cc:Work rdf:about=""><dc:format>image/svg+xml</dc:format><dc:type rdf:resource="http://purl.org/dc/dcmitype/StillImage"/></cc:Work></rdf:RDF></metadata><sodipodi:namedview inkscape:window-height="601" inkscape:window-width="676" inkscape:pageshadow="2" inkscape:pageopacity="0.0" guidetolerance="10.0" gridtolerance="10.0" objecttolerance="10.0" borderopacity="1.0" bordercolor="#666666" pagecolor="#ffffff" id="base" inkscape:zoom="0.94688222" inkscape:cx="147.45466" inkscape:cy="238.41581" inkscape:window-x="-3" inkscape:window-y="32" inkscape:current-layer="svg2"/><defs id="defs4"><linearGradient id="linearGradient2847"><stop style="stop-color:#ffea95;stop-opacity:1;" offset="0" id="stop2849"/><stop id="stop2855" offset="0.6785714" style="stop-color:#ffea95;stop-opacity:0.49803922;"/><stop style="stop-color:#ffea95;stop-opacity:0;" offset="1" id="stop2851"/></linearGradient><linearGradient id="linearGradient2833"><stop style="stop-color:#ffea94;stop-opacity:1" offset="0" id="stop2835"/><stop id="stop2841" offset="0.82237548" style="stop-color:#f4c812;stop-opacity:1"/><stop style="stop-color:#f2c301;stop-opacity:1" offset="1" id="stop2837"/></linearGradient>
	
		
	

		<radialGradient id="XMLID_1_" cx="216.7041" cy="393.79489" r="296.69681" gradientUnits="userSpaceOnUse">
			<stop offset="0" style="stop-color:#F4D708" id="stop13"/>
			<stop offset="1" style="stop-color:#FCB400" id="stop15"/>
		</radialGradient>
		
		
	<filter inkscape:collect="always" id="filter2827"><feGaussianBlur inkscape:collect="always" stdDeviation="3.4898235" id="feGaussianBlur2829"/></filter><radialGradient inkscape:collect="always" xlink:href="#linearGradient2847" id="radialGradient2853" cx="-409.76584" cy="87.349915" fx="-409.76584" fy="87.349915" r="92.390625" gradientTransform="matrix(0.7807054,1.815188,-1.0895528,0.468612,5.3129276,789.46881)" gradientUnits="userSpaceOnUse"/><filter inkscape:collect="always" x="-0.13472563" width="1.2694513" y="-0.13196952" height="1.263939" id="filter3266"><feGaussianBlur inkscape:collect="always" stdDeviation="10.372821" id="feGaussianBlur3268"/></filter><radialGradient inkscape:collect="always" xlink:href="#linearGradient2847" id="radialGradient3274" gradientUnits="userSpaceOnUse" gradientTransform="matrix(0.7807054,1.815188,-1.0895528,0.468612,5.3129276,789.46881)" cx="-409.76584" cy="87.349915" fx="-409.76584" fy="87.349915" r="92.390625"/><filter inkscape:collect="always" x="-0.068350405" width="1.1367008" y="-0.86282586" height="2.7256517" id="filter3310"><feGaussianBlur inkscape:collect="always" stdDeviation="10.210732" id="feGaussianBlur3312"/></filter><filter inkscape:collect="always" x="-0.022545779" width="1.0450916" y="-0.17712283" height="1.3542457" id="filter3366"><feGaussianBlur inkscape:collect="always" stdDeviation="3.6573254" id="feGaussianBlur3368"/></filter><radialGradient inkscape:collect="always" xlink:href="#XMLID_1_" id="radialGradient3414" gradientUnits="userSpaceOnUse" cx="216.7041" cy="393.79489" r="296.69681"/></defs><path style="opacity:0.28999999;fill:#000000;stroke:none;stroke-width:5;filter:url(#filter2827)" id="path2181" d="M 22.280271,396.83358 L 207.13227,28.031585 C 207.13227,28.031585 233.54127,-3.4724151 259.94727,28.031585 C 286.35527,59.537585 440.13927,398.68558 440.13927,398.68558 C 440.13927,398.68558 443.24427,417.21958 412.17827,417.21958 C 381.11227,417.21958 50.240271,417.21958 50.240271,417.21958 C 50.240271,417.21958 26.940271,417.21758 22.280271,396.83358 z"/><path d="M 8.551,390.497 L 193.403,21.695 C 193.403,21.695 219.812,-9.809 246.218,21.695 C 272.626,53.201 426.41,392.349 426.41,392.349 C 426.41,392.349 429.515,410.883 398.449,410.883 C 367.383,410.883 36.511,410.883 36.511,410.883 C 36.511,410.883 13.211,410.881 8.551,390.497 z" id="path17" style="fill:url(#XMLID_1_);"/><path d="M 8.551,390.497 L 193.403,21.695 C 193.403,21.695 219.812,-9.809 246.218,21.695 C 272.626,53.201 426.41,392.349 426.41,392.349 C 426.41,392.349 429.515,410.883 398.449,410.883 C 367.383,410.883 36.511,410.883 36.511,410.883 C 36.511,410.883 13.211,410.881 8.551,390.497 z" id="path19" style="fill:none;stroke:#e2a713;stroke-width:5"/><g id="g3270" transform="translate(611.70488,2.1121951)"><path transform="translate(-6.3365854,-7.3926829)" d="M -392.0625,28.9375 C -392.17992,29.141063 -392.37984,29.501896 -392.65625,30 C -392.14238,29.330218 -392.11414,29.073712 -392.0625,28.9375 z M -386.40625,29.6875 C -386.37362,29.743301 -385.92591,30.119497 -385.84375,30.21875 C -385.89216,30.140516 -386.05778,29.868866 -386.09375,29.8125 C -386.23686,29.588221 -386.56287,29.419708 -386.40625,29.6875 z M -388.15625,30.625 C -389.88335,30.50541 -392.10273,31.245202 -393.71875,31.96875 C -394.51224,33.430684 -395.32603,34.914634 -396.53125,37.1875 C -399.74889,43.255509 -404.27595,51.944268 -409.65625,62.3125 C -420.41684,83.048963 -434.56396,110.57422 -448.65625,138.125 C -458.86294,158.07935 -467.81022,175.70269 -476.625,193.09375 C -467.66268,189.74819 -458.52142,187.00512 -449.25,185 C -429.23332,180.67099 -403.05041,180.62221 -383.21875,185.0625 C -367.70816,188.53531 -354.96066,193.26142 -335.03125,202.625 C -326.28098,206.73621 -314.87515,211.6718 -313,212.375 C -305.38598,215.23038 -297.98911,216.97464 -292.8125,217.5625 C -292.44781,217.60391 -292.18618,217.54636 -291.84375,217.5625 L -291.84375,217.53125 L -337.53125,125.34375 C -355.61072,88.861851 -367.73747,64.600518 -375.5625,49.375 C -379.47502,41.762241 -382.33863,36.402084 -384.1875,33.09375 C -384.50478,32.526021 -384.58841,32.410324 -384.84375,31.96875 C -385.53792,31.538422 -386.34225,31.022312 -386.5625,30.9375 C -386.87384,30.817612 -387.43367,30.675034 -388.15625,30.625 z" id="path2845" style="fill:url(#radialGradient3274);fill-opacity:1;filter:url(#filter3266)" inkscape:original="M -386.78125 10.875 C -394.47915 10.34197 -402.82267 12.896508 -408.46875 17.875 C -410.7164 19.85688 -522.43751 238.27376 -522.4375 240.6875 C -522.4375 241.16277 -519.17501 239.15343 -515.1875 236.21875 C -494.1524 220.73755 -469.87299 209.7095 -445.0625 204.34375 C -429.9802 201.0819 -402.15183 201.10147 -387.53125 204.375 C -373.32902 207.55487 -362.82798 211.42088 -343.4375 220.53125 C -334.3625 224.79503 -323.78751 229.46245 -319.9375 230.90625 C -302.0363 237.61949 -285.17114 239.52804 -278.71875 235.59375 C -273.57873 232.45968 -272.30962 229.6224 -272.125 220.875 L -271.96875 213.0625 L -319.78125 116.5625 C -355.96934 43.539862 -368.39425 19.38115 -370.78125 17.3125 C -372.51619 15.80894 -376.41251 13.6336 -379.4375 12.46875 C -381.73091 11.585615 -384.21528 11.052677 -386.78125 10.875 z " inkscape:radius="-19.800472" sodipodi:type="inkscape:offset"/></g><path d="M212.496,292.632c-13.168-79.969-19.75-123.121-19.75-129.453c0-7.703,2.551-13.926,7.66-18.676  c5.105-4.746,10.871-7.121,17.293-7.121c6.949,0,12.82,2.535,17.609,7.598s7.188,11.023,7.188,17.883  c0,6.543-6.668,49.801-20,129.77H212.496z M239.496,330.804c0,6.098-2.156,11.301-6.469,15.613  c-4.313,4.309-9.461,6.465-15.453,6.465c-6.098,0-11.301-2.156-15.613-6.465c-4.313-4.313-6.465-9.516-6.465-15.613  c0-5.992,2.152-11.141,6.465-15.453s9.516-6.469,15.613-6.469c5.992,0,11.141,2.156,15.453,6.469S239.496,324.812,239.496,330.804z" id="path25"/><path d="M -245.46875,358.15625 C -254.81715,358.17392 -264.50829,358.80008 -275.15625,359.96875 C -301.26434,362.83424 -325.63386,369.98381 -345.9375,380.5625 C -347.52344,381.38881 -347.96099,381.72793 -349.0625,382.34375 C -348.98578,382.34745 -348.95215,382.34004 -348.875,382.34375 C -339.56598,382.79162 -327.12984,383.34801 -314.125,383.90625 C -288.11533,385.02274 -259.67312,386.12922 -249.5625,386.375 C -232.07434,386.80011 -171.62209,386.4206 -122.21875,385.875 C -130.86015,383.41669 -140.48416,380.44163 -152.15625,376.5625 C -191.94469,363.33913 -217.40333,358.10323 -245.46875,358.15625 z M 5.1875,368.6875 C 0.44490538,374.04583 -5.6702204,378.52004 -12.375,382.28125 C -1.6479122,381.62224 5.4012998,381.14385 9.46875,380.8125 C 8.4918122,376.26649 6.9457515,372.0656 5.1875,368.6875 z" id="path3280" style="fill:#ffea96;fill-opacity:1;filter:url(#filter3310)" inkscape:original="M -245.5 347.59375 C -255.30594 347.61228 -265.3806 348.26892 -276.3125 349.46875 C -303.59685 352.46334 -329.17586 359.91429 -350.8125 371.1875 C -358.78876 375.34333 -362.09366 377.67406 -364.5625 380.9375 C -368.56226 386.22458 -369.01864 391.26478 -365.5625 391.96875 C -363.15211 392.45969 -270.6159 396.43179 -249.8125 396.9375 C -222.99401 397.58942 -86.051599 396.62267 -63.8125 395.625 C -33.79685 394.27845 10.248421 391.67597 16.5625 390.875 L 21.4375 390.25 L 20.8125 384.15625 C 19.63891 372.87821 15.07248 361.80518 9.15625 355.8125 C 5.23832 351.84394 3.6797201 351.73716 1.8125 355.3125 C -1.89313 362.40797 -13.13747 371.54674 -24.40625 376.65625 C -36.45728 382.12044 -46.383363 383.93418 -64.8125 383.96875 C -90.3477 384.01664 -106.03808 380.74699 -148.8125 366.53125 C -189.10294 353.14104 -216.08219 347.53817 -245.5 347.59375 z " inkscape:radius="-10.555089" sodipodi:type="inkscape:offset" transform="translate(389.7,10.560978)"/></svg>